<svg xmlns="http://www.w3.org/2000/svg" xmlns:xlink="http://www.w3.org/1999/xlink" width="500" zoomAndPan="magnify" viewBox="0 0 375 374.999991" height="500" preserveAspectRatio="xMidYMid meet" version="1.0"><rect x="-37.5" width="450" fill="#ffffff" y="-37.499999" height="449.999989" fill-opacity="1"/><rect x="-37.5" width="450" fill="#ffffff" y="-37.499999" height="449.999989" fill-opacity="1"/><path fill="#1e3f48" d="M 349.6875 213.757812 C 347.777344 212.324219 345.863281 210.910156 343.542969 210.175781 C 342.785156 209.9375 342.023438 209.769531 342.210938 208.558594 C 342.679688 205.554688 342.9375 202.515625 343.382812 199.507812 C 344.230469 193.8125 345.332031 188.152344 345.542969 182.382812 C 345.625 180.121094 344.636719 178.492188 342.433594 177.648438 C 340.441406 176.886719 338.464844 176.128906 336.378906 175.625 C 331.9375 174.554688 327.476562 173.648438 322.304688 173.570312 C 326.082031 169.554688 329.378906 165.914062 332.832031 162.425781 C 335.03125 160.203125 337.464844 158.207031 339.28125 155.625 C 340.410156 154.023438 340.226562 152.800781 338.320312 151.890625 C 335.125 150.371094 331.824219 149.144531 328.480469 148 C 319.585938 144.957031 310.375 143.433594 301.121094 142.023438 C 295.523438 141.167969 289.988281 139.972656 284.3125 139.566406 C 272.023438 138.691406 260.042969 141.226562 248.019531 142.949219 C 240.59375 144.011719 233.226562 145.878906 226.191406 148.703125 C 224.089844 149.546875 222.539062 149.546875 221.1875 147.238281 C 218.175781 142.109375 214.074219 137.761719 210.289062 133.210938 C 209.070312 131.75 208.964844 130.730469 209.667969 129.121094 C 211.703125 124.457031 213.777344 119.796875 215.480469 115.011719 C 217.058594 110.570312 216.125 107.039062 213.074219 105.625 C 203.785156 101.320312 194.65625 96.617188 184.632812 94.070312 C 180.730469 93.078125 177.675781 93.839844 175.375 97.179688 C 174.875 97.90625 174.460938 98.253906 173.652344 97.546875 C 168.75 93.257812 162.632812 91.070312 156.960938 88.152344 C 152.664062 85.941406 148.511719 83.410156 143.941406 81.730469 C 136.960938 79.164062 130.042969 76.441406 122.84375 74.449219 C 120.371094 73.765625 119.074219 73.957031 117.53125 76.046875 C 107.507812 89.617188 97.167969 102.949219 86.886719 116.324219 C 80.320312 124.863281 74.367188 133.832031 67.53125 142.207031 C 56.292969 155.972656 45.109375 169.800781 34.589844 184.140625 C 32.824219 186.542969 31.8125 188.972656 32.570312 191.925781 C 33.292969 194.757812 32.472656 197.078125 30.441406 199.09375 C 28.675781 200.839844 27.1875 202.824219 26.070312 205.042969 C 23.582031 209.996094 23.914062 212.347656 29.664062 215.535156 C 30.234375 215.851562 30.871094 216.035156 31.476562 216.292969 C 36.535156 218.453125 42.097656 219.449219 46.925781 221.929688 C 52.953125 225.023438 59.097656 227.683594 65.476562 229.84375 C 74.039062 232.746094 81.96875 237.191406 90.636719 239.84375 C 99.097656 242.429688 107.71875 244.527344 115.726562 248.519531 C 126.023438 253.65625 137.421875 256.03125 147.828125 260.941406 C 149.144531 261.5625 150.613281 261.886719 152.027344 262.289062 C 159.90625 264.523438 167.957031 266.273438 175.621094 269.089844 C 182.953125 271.789062 190.398438 274.046875 197.882812 276.136719 C 208.382812 279.0625 219.042969 281.359375 229.332031 285.085938 C 241.578125 289.527344 254.578125 291.625 266.558594 296.964844 C 269.089844 298.09375 271.773438 298.976562 274.472656 299.628906 C 281.042969 301.214844 282.398438 300.648438 284.800781 297.386719 C 287.632812 293.546875 290.488281 289.722656 293.492188 286.019531 C 298.679688 279.617188 304.386719 273.660156 309.554688 267.234375 C 315.128906 260.304688 320.535156 253.234375 326.742188 246.820312 C 335.417969 237.855469 342.296875 227.414062 350.1875 217.792969 C 351.394531 216.324219 351.253906 214.933594 349.6875 213.757812 Z M 349.6875 213.757812 " fill-opacity="1" fill-rule="nonzero"/><path fill="#ffbd59" d="M 195.113281 115.617188 C 194.894531 117.269531 195.046875 118.464844 197.832031 117.945312 C 199.820312 117.574219 200.898438 119.632812 201.496094 121.347656 C 202.101562 123.089844 201.070312 124.164062 199.429688 124.640625 C 197.320312 125.253906 196.507812 126.070312 198.109375 128.25 C 199.394531 130 198.386719 131.847656 197.257812 133.453125 C 196.246094 134.882812 195.175781 136.484375 193.152344 135.980469 C 191.070312 135.457031 190.386719 136.394531 189.820312 138.125 C 188.652344 141.710938 186.59375 143.132812 183.746094 142.546875 C 181.359375 142.058594 180.46875 140.699219 180.945312 138.269531 C 181.433594 135.78125 181.265625 135.617188 178.734375 136.097656 C 176.261719 136.5625 174.578125 135.511719 173.667969 132.933594 C 172.953125 130.898438 173.710938 128.761719 176.097656 128.050781 C 179.222656 127.117188 178.324219 125.886719 177.03125 124.089844 C 175.136719 121.449219 175.355469 118.824219 177.46875 116.191406 C 179.652344 113.472656 181.1875 113.363281 183.757812 115.714844 C 184.351562 116.253906 184.835938 117.324219 185.621094 117.152344 C 186.660156 116.933594 186.09375 115.75 186.253906 115 C 187.222656 110.507812 190.015625 109.167969 193.660156 111.371094 C 195.253906 112.335938 195.191406 113.742188 195.113281 115.617188 Z M 182.214844 128.085938 C 182.21875 131.398438 183.859375 133.214844 186.816406 133.179688 C 190.042969 133.140625 193.605469 129.507812 193.621094 126.246094 C 193.636719 123.535156 190.039062 120.371094 187.03125 120.445312 C 184.5625 120.503906 182.214844 124.230469 182.214844 128.085938 Z M 164.296875 150.414062 C 159.417969 156.683594 158.566406 166.667969 162.480469 173.136719 C 164.273438 165.390625 165.855469 158.207031 164.296875 150.414062 Z M 174.699219 181.992188 C 181.394531 178.277344 184.273438 174.6875 185.671875 168.132812 C 180.484375 171.8125 176.539062 175.886719 174.699219 181.992188 Z M 174.699219 181.992188 " fill-opacity="1" fill-rule="nonzero"/><path fill="#d0ccb9" d="M 213.402344 111.609375 C 213.40625 113.117188 213.015625 114.539062 212.414062 115.902344 C 202.347656 138.738281 193.066406 161.871094 185.652344 185.734375 C 183.636719 192.214844 181.429688 198.667969 178.34375 204.78125 C 177.191406 207.066406 175.917969 207.769531 173.359375 207.140625 C 168.167969 205.863281 163.152344 204.03125 158.15625 202.253906 C 152.957031 200.402344 147.683594 198.929688 142.359375 197.625 C 139.953125 197.035156 139.066406 196.050781 139.660156 193.546875 C 140.78125 188.832031 142.003906 184.183594 144.050781 179.742188 C 145.625 176.324219 146.847656 172.738281 148.152344 169.195312 C 153.449219 154.785156 159.210938 140.570312 165.660156 126.628906 C 167.445312 122.765625 168.929688 118.742188 170.269531 114.699219 C 172.03125 109.382812 174.664062 104.453125 176.824219 99.316406 C 178.335938 95.714844 180.199219 95.039062 183.886719 96.078125 C 193.570312 98.800781 202.433594 103.519531 211.625 107.4375 C 213.0625 108.050781 213.46875 109.183594 213.402344 111.609375 Z M 203.832031 122.214844 C 203.597656 120 202.628906 117.972656 200.832031 117.015625 C 198.484375 115.761719 196.859375 114.386719 196.644531 111.59375 C 196.574219 110.675781 195.644531 110.136719 194.859375 109.660156 C 190.289062 106.890625 187.441406 107.75 185.019531 112.691406 C 184.636719 113.476562 184.492188 113.765625 183.578125 113.148438 C 182.464844 112.394531 181.230469 111.679688 179.6875 112.238281 C 175.992188 113.585938 171.753906 119.675781 174.9375 124.375 C 175.925781 125.832031 175.519531 126.226562 174.273438 127.066406 C 170.277344 129.757812 170.683594 136 175.1875 137.539062 C 177.617188 138.367188 178.679688 139.195312 179.460938 141.695312 C 180.027344 143.511719 180.660156 144.773438 179.449219 146.445312 C 179 147.070312 178.890625 147.972656 178.722656 148.769531 C 177.800781 153.148438 176.097656 157.210938 173.824219 161.050781 C 172.773438 162.824219 172.070312 164.746094 171.324219 166.660156 C 169.101562 172.355469 168.023438 178.289062 167.335938 184.34375 C 166.851562 188.589844 164.945312 192.496094 163.726562 196.566406 C 163.511719 197.277344 163.03125 198.070312 164.011719 198.425781 C 164.917969 198.757812 165.316406 197.980469 165.550781 197.238281 C 166.875 193.027344 168.839844 189.015625 169.410156 184.578125 C 170.171875 178.628906 171.121094 172.695312 173.523438 167.167969 C 176.457031 160.425781 180.226562 154.027344 181.574219 146.664062 C 181.664062 146.195312 182.035156 145.785156 182.15625 145.3125 C 182.359375 144.542969 182.894531 144.570312 183.496094 144.601562 C 187.5 144.804688 190.023438 143.324219 191.472656 139.660156 C 191.890625 138.601562 192.207031 138.121094 193.464844 138.085938 C 197.898438 137.957031 201.710938 132.425781 200.28125 128.113281 C 199.878906 126.90625 200.097656 126.621094 201.113281 126.230469 C 202.921875 125.523438 203.660156 124.011719 203.832031 122.214844 Z M 166.917969 156.808594 C 167.195312 153.878906 166.851562 151.066406 165.441406 148.449219 C 165.101562 147.824219 164.871094 147.007812 163.925781 147.058594 C 163.046875 147.109375 162.765625 147.847656 162.429688 148.503906 C 160.722656 151.855469 159.1875 155.308594 158.160156 158.910156 C 156.667969 164.144531 158.21875 169.066406 160.429688 173.800781 C 160.796875 174.59375 161.457031 175.394531 162.535156 175.199219 C 163.5 175.023438 163.65625 174.09375 163.925781 173.339844 C 165.859375 167.996094 166.8125 162.46875 166.917969 156.808594 Z M 172.878906 185.101562 C 182.445312 181.058594 186.664062 175.707031 188.328125 167.273438 C 188.488281 166.472656 188.53125 165.839844 187.898438 165.265625 C 187.121094 164.5625 186.507812 165.179688 185.910156 165.535156 C 181.371094 168.25 177.6875 171.863281 175.042969 176.433594 C 173.535156 179.042969 172.660156 181.90625 172.878906 185.101562 Z M 197.734375 205.808594 C 204.710938 204.351562 211.433594 201.964844 218.300781 200.109375 C 220.171875 199.601562 222.253906 198.996094 223.457031 197.386719 C 228.039062 191.269531 232.617188 185.144531 236.589844 178.597656 C 237.464844 177.15625 236.964844 176.8125 235.476562 176.6875 C 232.800781 176.464844 230.28125 177.203125 227.734375 177.734375 C 219.132812 179.523438 211.582031 182.964844 206.773438 190.882812 C 205.503906 192.976562 203.789062 194.804688 202.277344 196.753906 C 200.078125 199.59375 197.542969 202.199219 195.9375 205.921875 C 196.769531 205.871094 197.265625 205.90625 197.734375 205.808594 Z M 187.480469 123.226562 C 185.601562 123.160156 184.285156 125.078125 184.300781 128.054688 C 184.308594 129.691406 184.9375 130.925781 186.867188 130.921875 C 188.90625 130.917969 191.121094 128.539062 191.152344 126.316406 C 191.175781 124.53125 189.722656 123.3125 187.480469 123.226562 Z M 187.480469 123.226562 " fill-opacity="1" fill-rule="nonzero"/><path fill="#106585" d="M 32.683594 200.074219 C 32.738281 200.855469 32.839844 201.25 32.777344 201.617188 C 31.984375 206.296875 34.261719 208.644531 38.515625 210.195312 C 53.679688 215.714844 68.8125 221.332031 83.851562 227.1875 C 98.066406 232.722656 112.320312 238.195312 125.980469 245.035156 C 131.933594 248.015625 138.347656 249.8125 144.394531 252.59375 C 147.796875 254.15625 152.160156 253.828125 156.007812 254.917969 C 168.105469 258.347656 180.59375 259.863281 192.886719 262.320312 C 217.105469 267.164062 240.734375 273.898438 263.394531 283.824219 C 267.0625 285.433594 270.390625 287.753906 274.375 288.742188 C 276.164062 289.183594 277.496094 289.207031 278.792969 287.78125 C 283.996094 282.050781 288.945312 276.105469 293.949219 270.203125 C 302.6875 259.902344 311.667969 249.808594 320.566406 239.644531 C 325.234375 234.316406 329.871094 228.953125 335.121094 224.164062 C 338.339844 221.222656 340.746094 217.738281 341.621094 213.390625 C 341.917969 211.910156 342.59375 211.988281 343.613281 212.546875 C 343.757812 212.628906 343.898438 212.710938 344.046875 212.785156 C 348.992188 215.191406 348.976562 215.328125 345.566406 219.492188 C 339.414062 227.015625 334.132812 235.246094 327.429688 242.316406 C 314.769531 255.667969 304.066406 270.671875 291.722656 284.292969 C 288.535156 287.808594 285.902344 291.835938 283.09375 295.691406 C 281.492188 297.894531 279.324219 298.726562 276.085938 297.679688 C 271.722656 296.269531 267.332031 294.847656 263.132812 293.019531 C 254.277344 289.160156 244.664062 287.792969 235.671875 284.515625 C 218.90625 278.40625 201.277344 275.316406 184.46875 269.527344 C 173.054688 265.597656 161.320312 262.839844 149.929688 258.941406 C 140.171875 255.605469 130.441406 252.078125 121.003906 247.945312 C 111.425781 243.753906 101.65625 240.261719 91.621094 237.429688 C 83.367188 235.097656 75.902344 230.792969 67.847656 227.941406 C 61.050781 225.535156 54.234375 223.167969 47.96875 219.40625 C 45.644531 218.011719 42.734375 217.566406 40.066406 216.765625 C 36.28125 215.625 32.699219 213.996094 29.140625 212.3125 C 27.246094 211.417969 26.457031 210.160156 27.292969 207.953125 C 28.421875 204.980469 30.300781 202.617188 32.683594 200.074219 Z M 32.683594 200.074219 " fill-opacity="1" fill-rule="nonzero"/><path fill="#e3d8d6" d="M 136.605469 194.9375 C 132.007812 191.925781 127.8125 188.613281 123.28125 185.777344 C 107.636719 175.984375 91.355469 167.503906 73.875 161.449219 C 73.101562 161.183594 72.289062 161.027344 71.511719 160.773438 C 70.734375 160.527344 69.769531 159.976562 69.375 161.046875 C 68.875 162.394531 70.289062 162.378906 71.007812 162.675781 C 76.914062 165.125 82.980469 167.230469 88.742188 169.984375 C 103.585938 177.085938 118.183594 184.664062 131.453125 194.535156 C 135.75 197.730469 140.050781 200.917969 144.386719 204.0625 C 148.699219 207.191406 152.289062 211.015625 155.417969 215.296875 C 155.5625 215.496094 155.664062 215.730469 155.820312 215.917969 C 156.429688 216.660156 157.195312 217.347656 158.113281 216.636719 C 158.9375 215.992188 158.414062 215.167969 157.941406 214.449219 C 155.472656 210.714844 152.472656 207.449219 149.148438 204.476562 C 148.125 203.558594 147.03125 202.722656 146.089844 201.613281 C 156.375 203.519531 165.707031 208.625 176.355469 210.136719 C 166.453125 222.722656 156.464844 235.039062 146.511719 247.023438 C 138.21875 235.988281 128.078125 226.875 116.035156 219.558594 C 102.375 211.253906 87.429688 205.953125 72.792969 200 C 60.597656 195.042969 47.820312 191.519531 34.980469 187.253906 C 36.941406 184.710938 38.96875 182.257812 40.8125 179.667969 C 49.941406 166.855469 60.203125 154.921875 70.066406 142.695312 C 76.703125 134.472656 82.441406 125.652344 88.847656 117.300781 C 98.964844 104.113281 109.246094 91.046875 118.863281 77.484375 C 119.78125 76.191406 120.472656 76.035156 121.976562 76.433594 C 129.195312 78.335938 136.109375 81.082031 143.066406 83.730469 C 147 85.226562 150.609375 87.371094 154.328125 89.277344 C 160.304688 92.34375 166.652344 94.726562 172.121094 98.796875 C 173.5625 99.871094 173.75 100.609375 172.96875 102.125 C 170.71875 106.464844 168.714844 110.921875 167.292969 115.679688 C 154.179688 105.148438 139.390625 98.527344 124.113281 92.863281 C 123.371094 92.589844 121.996094 91.140625 121.472656 92.726562 C 121.011719 94.113281 122.746094 94.335938 123.757812 94.765625 C 131.597656 98.125 139.476562 101.402344 146.976562 105.484375 C 152.542969 108.511719 158.128906 111.523438 163.089844 115.527344 C 166.183594 118.023438 166.167969 118.042969 164.871094 121.636719 C 163.078125 126.589844 160.625 131.253906 158.515625 136.066406 C 157.945312 137.375 157.558594 137.597656 156.386719 136.566406 C 152.304688 132.96875 147.84375 129.847656 143.492188 126.589844 C 134.375 119.769531 123.992188 115.378906 113.664062 110.875 C 112.625 110.421875 111.539062 110.078125 110.648438 109.269531 C 109.988281 108.671875 109.054688 108.632812 108.546875 109.550781 C 108.082031 110.386719 108.679688 110.992188 109.375 111.328125 C 111.878906 112.554688 114.363281 113.847656 116.945312 114.894531 C 130.972656 120.59375 143.332031 128.949219 154.960938 138.503906 C 156.179688 139.503906 156.679688 140.398438 155.96875 142.03125 C 154.03125 146.46875 152.257812 150.980469 150.480469 155.488281 C 149.941406 156.855469 149.515625 156.867188 148.269531 156.035156 C 135.832031 147.703125 123.746094 138.8125 110.402344 131.914062 C 106.539062 129.914062 102.613281 128.042969 98.3125 127.101562 C 97.433594 126.910156 96.539062 126.683594 96.257812 127.691406 C 95.960938 128.753906 96.949219 128.992188 97.761719 129.21875 C 103.511719 130.828125 108.707031 133.640625 113.839844 136.585938 C 125.0625 143.019531 135.464844 150.710938 146.3125 157.722656 C 148.085938 158.867188 148.714844 159.859375 147.761719 162.019531 C 146.175781 165.617188 144.953125 169.378906 143.691406 173.113281 C 143.238281 174.457031 142.8125 174.34375 141.84375 173.589844 C 125.878906 161.226562 107.90625 152.695312 89 145.953125 C 87.277344 145.339844 85.53125 144.9375 83.695312 145.015625 C 83.105469 145.039062 82.445312 145.046875 82.347656 145.78125 C 82.234375 146.621094 82.878906 146.839844 83.5625 147.035156 C 98.644531 151.339844 112.835938 157.675781 126.101562 166.019531 C 131.109375 169.171875 136.3125 172.066406 140.832031 175.953125 C 141.453125 176.488281 142.441406 176.789062 141.785156 178.082031 C 139.136719 183.324219 137.804688 189.003906 136.605469 194.9375 Z M 59.632812 175.328125 C 59.109375 175.269531 58.566406 175.394531 58.507812 175.980469 C 58.429688 176.769531 58.960938 177.085938 59.710938 177.246094 C 62.113281 177.761719 64.539062 178.210938 66.886719 178.914062 C 85.800781 184.585938 102.730469 194.375 119.492188 204.464844 C 130.046875 210.816406 140.019531 217.941406 147.859375 227.652344 C 148.402344 228.328125 149.109375 229.246094 150.085938 228.3125 C 151.015625 227.425781 150.191406 226.621094 149.640625 225.957031 C 145.996094 221.578125 142.121094 217.390625 137.675781 213.835938 C 129.753906 207.496094 120.835938 202.667969 112.261719 197.300781 C 98.777344 188.863281 84.527344 182.355469 69.484375 177.382812 C 66.265625 176.320312 62.984375 175.71875 59.632812 175.328125 Z M 151.148438 245.648438 C 156.078125 239.050781 161.515625 232.863281 166.640625 226.421875 C 179.71875 209.992188 192.324219 193.210938 204.914062 176.414062 C 210.492188 168.972656 216.0625 161.523438 221.609375 154.058594 C 222.722656 152.554688 224.089844 151.613281 225.890625 150.996094 C 233.121094 148.519531 240.519531 146.449219 248.03125 145.429688 C 259.976562 143.804688 271.871094 141.1875 284.070312 142.074219 C 289.660156 142.480469 295.121094 143.667969 300.632812 144.558594 C 309.714844 146.023438 318.800781 147.441406 327.527344 150.484375 C 330.085938 151.375 332.59375 152.402344 335.152344 153.285156 C 336.988281 153.921875 337.4375 154.535156 335.804688 156.128906 C 332.335938 159.523438 328.777344 162.824219 325.390625 166.316406 C 315.011719 177.003906 305.460938 188.40625 295.839844 199.738281 C 289.507812 207.199219 282.574219 214.183594 277.027344 222.292969 C 273.21875 227.859375 269.703125 233.621094 265.417969 238.863281 C 264.53125 239.945312 263.753906 240.261719 262.539062 239.925781 C 256.066406 238.121094 249.390625 238.0625 242.757812 237.539062 C 237.179688 237.097656 231.597656 236.359375 226.011719 236.46875 C 215.160156 236.671875 204.285156 235.882812 193.449219 237.382812 C 187.59375 238.195312 181.625 238.183594 175.804688 239.355469 C 167.589844 241.011719 159.671875 243.769531 151.636719 246.082031 C 151.472656 245.9375 151.3125 245.792969 151.148438 245.648438 Z M 195.847656 208.46875 C 196.671875 208.410156 197.175781 208.414062 197.65625 208.328125 C 205.007812 206.992188 212.097656 204.652344 219.246094 202.570312 C 221.585938 201.886719 224.058594 201.0625 225.59375 198.976562 C 230.367188 192.476562 235.34375 186.113281 239.28125 179.039062 C 240.890625 176.140625 240.425781 175.445312 237.277344 174.699219 C 233.3125 173.753906 229.609375 175.097656 225.871094 175.804688 C 219.019531 177.101562 212.527344 179.175781 208.273438 185.433594 C 206.382812 188.214844 204.0625 190.703125 201.957031 193.34375 C 198.832031 197.265625 195.519531 201.039062 193.113281 205.5 C 192.238281 207.117188 191.464844 208.253906 194.269531 208.113281 C 194.886719 208.082031 195.523438 208.390625 195.847656 208.46875 Z M 268.910156 167.789062 C 279.878906 168.289062 290.929688 168.371094 301.414062 172.417969 C 302.457031 172.824219 303.734375 173.214844 304.121094 171.847656 C 304.476562 170.601562 303.082031 170.4375 302.203125 170.074219 C 292.355469 165.980469 281.847656 165.582031 271.460938 165.136719 C 262.445312 164.75 253.378906 164.90625 244.347656 165.808594 C 238.613281 166.382812 232.863281 166.742188 227.316406 168.359375 C 223.859375 169.367188 220.488281 170.660156 217.105469 171.894531 C 216.546875 172.097656 215.738281 172.519531 216.042969 173.3125 C 216.34375 174.089844 217.164062 173.769531 217.785156 173.683594 C 218.101562 173.636719 218.390625 173.421875 218.703125 173.332031 C 225.003906 171.515625 231.238281 169.261719 237.828125 168.867188 C 248.167969 168.246094 258.492188 166.734375 268.910156 167.789062 Z M 269.917969 153.988281 C 264.335938 153.535156 259.546875 155.441406 254.574219 155.886719 C 245.164062 156.730469 235.960938 158.761719 226.691406 160.441406 C 225.996094 160.566406 224.746094 160.652344 224.945312 161.71875 C 225.144531 162.792969 226.324219 162.449219 227.0625 162.332031 C 235.074219 161.066406 243.027344 159.398438 251.125 158.703125 C 256.285156 158.261719 261.328125 156.632812 266.457031 156.554688 C 274.402344 156.433594 282.359375 155.359375 290.335938 156.875 C 296.195312 157.992188 302.304688 157.648438 308.035156 159.75 C 309.015625 160.109375 310.125 160.167969 311.183594 160.273438 C 312.144531 160.375 313.5 160.570312 313.707031 159.457031 C 313.914062 158.363281 312.683594 157.988281 311.664062 157.796875 C 310.617188 157.597656 309.574219 157.382812 308.542969 157.117188 C 298.132812 154.464844 287.523438 153.546875 276.820312 153.53125 C 274.355469 153.527344 271.894531 153.851562 269.917969 153.988281 Z M 241.582031 212.402344 C 248.785156 212.328125 255.269531 213.648438 261.359375 216.273438 C 262.863281 216.921875 264.386719 217.589844 266.066406 217.53125 C 266.703125 217.507812 267.433594 217.289062 267.613281 216.515625 C 267.769531 215.851562 267.417969 215.414062 266.730469 215.308594 C 263.191406 214.777344 260.167969 212.792969 256.777344 211.785156 C 245.207031 208.332031 233.347656 209.875 221.691406 210.203125 C 208.589844 210.570312 195.652344 213.28125 182.960938 216.785156 C 182.265625 216.980469 181.253906 216.917969 181.386719 217.898438 C 181.535156 218.96875 182.59375 218.882812 183.390625 218.746094 C 185.40625 218.402344 187.429688 218.054688 189.410156 217.546875 C 199.625 214.945312 210.035156 213.5625 220.515625 212.792969 C 227.71875 212.261719 234.96875 212.949219 241.582031 212.402344 Z M 226.609375 221.816406 C 210.363281 221.726562 197.035156 223.613281 183.742188 225.835938 C 180.675781 226.351562 177.609375 226.875 174.558594 227.464844 C 174 227.570312 173.09375 227.625 173.289062 228.609375 C 173.476562 229.5625 174.164062 229.574219 175 229.445312 C 178.566406 228.890625 182.132812 228.363281 185.707031 227.886719 C 193.511719 226.839844 201.296875 225.457031 209.136719 224.894531 C 218.722656 224.207031 228.34375 223.871094 237.953125 225.203125 C 243.554688 225.980469 249.25 226.058594 254.378906 228.945312 C 255.394531 229.515625 256.757812 229.496094 257.96875 229.675781 C 258.726562 229.785156 259.585938 229.695312 259.71875 228.765625 C 259.839844 227.910156 259.109375 227.261719 258.390625 227.277344 C 256.027344 227.328125 254.210938 225.910156 252.140625 225.195312 C 242.96875 222.027344 233.328125 222.664062 226.609375 221.816406 Z M 294.847656 180.804688 C 294.753906 180.144531 294.351562 179.773438 293.765625 179.566406 C 292.460938 179.105469 291.175781 178.546875 289.839844 178.210938 C 283.707031 176.65625 277.484375 175.691406 271.15625 175.339844 C 263.164062 174.890625 255.222656 175.46875 247.300781 176.414062 C 246.640625 176.492188 245.097656 176.253906 245.296875 177.59375 C 245.449219 178.605469 246.65625 178.242188 247.433594 178.214844 C 252.121094 178.027344 256.8125 177.910156 261.488281 177.574219 C 267.519531 177.136719 273.480469 177.925781 279.421875 178.574219 C 283.875 179.058594 288.304688 180.0625 292.53125 181.707031 C 293.597656 182.121094 294.457031 182.066406 294.847656 180.804688 Z M 250.570312 186.105469 C 248.015625 186.105469 245.460938 186.101562 242.90625 186.105469 C 242.15625 186.105469 241.253906 186.097656 241.25 187.09375 C 241.246094 188.046875 242.125 188.128906 242.886719 188.183594 C 244.199219 188.269531 245.511719 188.429688 246.828125 188.441406 C 255.398438 188.507812 263.917969 189.101562 272.375 190.550781 C 275.847656 191.144531 279.332031 191.671875 282.6875 192.800781 C 283.535156 193.082031 284.628906 193.542969 285.054688 192.453125 C 285.535156 191.214844 284.375 190.78125 283.4375 190.441406 C 282.519531 190.105469 281.585938 189.769531 280.632812 189.554688 C 270.738281 187.339844 260.722656 186.117188 250.570312 186.105469 Z M 243.808594 196.128906 C 242.046875 196.128906 239.328125 196.132812 236.609375 196.125 C 235.753906 196.125 234.785156 196.207031 234.695312 197.191406 C 234.589844 198.402344 235.695312 198.257812 236.484375 198.277344 C 239.613281 198.355469 242.746094 198.539062 245.867188 198.429688 C 255.007812 198.101562 263.773438 200.355469 272.621094 202.097656 C 273.777344 202.328125 275.433594 203.875 276.027344 202.097656 C 276.621094 200.296875 274.402344 200.3125 273.226562 199.769531 C 273.078125 199.699219 272.925781 199.617188 272.769531 199.589844 C 263.507812 197.820312 254.320312 195.464844 243.808594 196.128906 Z M 156.691406 250.296875 C 165.25 249.320312 173.808594 249.617188 182.351562 250.210938 C 189.722656 250.726562 197.066406 251.652344 204.417969 252.441406 C 212.007812 253.253906 219.632812 253.695312 227.160156 255.105469 C 238.839844 257.292969 250.546875 259.332031 261.613281 263.886719 C 263.355469 264.605469 264.640625 264.121094 265.699219 262.703125 C 269.707031 257.351562 274.527344 252.699219 279.144531 247.929688 C 286.535156 240.292969 293.5625 232.324219 300.746094 224.515625 C 314.015625 210.089844 327.074219 195.476562 341.082031 181.75 C 342.5 180.359375 341.90625 180.105469 340.519531 179.558594 C 334.410156 177.160156 328.015625 176.265625 321.53125 175.804688 C 320.851562 175.757812 320.257812 175.773438 319.753906 176.371094 C 316.769531 179.890625 313.128906 182.816406 310.371094 186.539062 C 303.640625 195.621094 295.710938 203.691406 288.5 212.367188 C 283.96875 217.820312 279.421875 223.1875 275.574219 229.152344 C 273.484375 232.398438 271.164062 235.503906 268.882812 238.625 C 266.570312 241.792969 263.886719 244.054688 259.644531 241.902344 C 259.21875 241.6875 258.695312 241.65625 258.210938 241.566406 C 251.230469 240.296875 244.125 240.363281 237.085938 239.683594 C 225.839844 238.597656 214.515625 238.859375 203.238281 239.1875 C 195.605469 239.40625 187.988281 240.433594 180.394531 241.320312 C 171.292969 242.382812 162.726562 245.660156 153.953125 248.070312 C 152.402344 248.496094 150.851562 249.089844 149.296875 250.339844 C 151.949219 250.339844 154.347656 250.566406 156.691406 250.296875 Z M 37.707031 207.398438 C 45.433594 210.363281 53.066406 213.597656 60.890625 216.292969 C 79.035156 222.542969 96.914062 229.507812 114.546875 237.039062 C 124.53125 241.304688 134.371094 245.949219 144.464844 249.941406 C 143.835938 247.507812 142.515625 245.339844 140.707031 243.375 C 136.460938 238.765625 132.035156 234.339844 127.226562 230.324219 C 124.070312 227.6875 120.828125 225.140625 117.253906 223.0625 C 108.160156 217.769531 98.738281 213.199219 88.976562 209.21875 C 77.207031 204.417969 65.597656 199.273438 53.371094 195.683594 C 47.183594 193.867188 41.109375 191.664062 34.792969 189.574219 C 34.792969 190.875 34.804688 191.941406 34.789062 193.003906 C 34.773438 193.875 35.109375 194.441406 36.03125 194.515625 C 41.011719 194.910156 45.511719 196.988281 50.160156 198.550781 C 60.640625 202.074219 71.082031 205.726562 81.285156 209.980469 C 87.246094 212.464844 93.089844 215.425781 99.105469 217.609375 C 107.503906 220.660156 114.90625 225.207031 122.363281 229.832031 C 125.925781 232.039062 128.519531 235.238281 131.585938 238.441406 C 129.902344 238.625 129.175781 237.757812 128.425781 237.078125 C 122.199219 231.464844 114.835938 227.597656 107.597656 223.554688 C 103.65625 221.355469 99.085938 220.558594 95.109375 218.390625 C 89.191406 215.164062 82.808594 212.984375 76.59375 210.492188 C 65.800781 206.164062 54.738281 202.511719 43.796875 198.554688 C 40.910156 197.511719 37.976562 196.730469 35.121094 196.382812 C 33.871094 199.496094 35.511719 200.726562 37.964844 201.628906 C 40.195312 202.449219 42.371094 203.34375 44.777344 203.601562 C 49.175781 204.074219 52.871094 206.707031 57.066406 207.785156 C 62.886719 209.28125 68.332031 211.765625 73.910156 213.902344 C 79.734375 216.132812 85.222656 219.257812 91.042969 221.3125 C 98.261719 223.859375 105.171875 227.007812 112.1875 229.972656 C 115.019531 231.171875 117.648438 232.671875 120.023438 234.585938 C 121.679688 235.921875 123.300781 237.339844 124.210938 239.378906 C 120.125 236.851562 116.261719 234.097656 111.839844 232.253906 C 107.375 230.386719 102.941406 228.4375 98.546875 226.410156 C 94.453125 224.519531 89.96875 223.8125 85.902344 221.699219 C 77.023438 217.082031 67.613281 213.679688 58.199219 210.28125 C 50.597656 207.539062 42.75 205.550781 34.957031 202.605469 C 34.519531 204.988281 35.449219 206.53125 37.707031 207.398438 Z M 271.785156 285.109375 C 271.714844 283.320312 270.761719 281.664062 269.289062 281.238281 C 261.777344 279.070312 254.90625 275.339844 247.601562 272.683594 C 239.226562 269.640625 230.566406 267.601562 221.996094 265.246094 C 221.390625 265.082031 220.679688 264.882812 220.921875 263.9375 C 222.746094 263.621094 224.515625 263.796875 226.269531 264.339844 C 228.921875 265.167969 231.554688 266.082031 234.25 266.753906 C 241.9375 268.683594 249.585938 270.636719 256.8125 274.054688 C 260.335938 275.71875 263.933594 277.363281 267.796875 278.214844 C 267.875 278.128906 267.953125 278.046875 268.035156 277.964844 C 267.898438 277.40625 267.730469 276.855469 267.625 276.292969 C 267.199219 274 266.089844 272.671875 263.566406 272.214844 C 259.949219 271.558594 256.425781 270.398438 252.859375 269.464844 C 242.960938 266.875 233.085938 264.222656 223.046875 262.183594 C 216.949219 260.945312 210.777344 260.214844 204.621094 259.246094 C 204.894531 258.382812 205.46875 258.355469 206.058594 258.359375 C 208.613281 258.378906 211.203125 258.117188 213.714844 258.457031 C 224.269531 259.890625 234.605469 262.402344 244.886719 265.160156 C 251.796875 267.015625 258.746094 268.730469 265.921875 270.570312 C 265.207031 268.367188 264.769531 266.410156 261.976562 266.566406 C 261.050781 266.621094 260.078125 266.113281 259.148438 265.804688 C 253.476562 263.90625 247.953125 261.566406 241.992188 260.5625 C 233.011719 259.050781 224.152344 256.707031 215.054688 256.011719 C 204.144531 255.179688 193.335938 253.40625 182.421875 252.679688 C 174.183594 252.132812 165.933594 251.839844 157.660156 252.769531 C 160.472656 253.570312 163.296875 254.339844 166.160156 254.875 C 181.121094 257.679688 196.132812 260.214844 210.949219 263.773438 C 230.535156 268.476562 249.566406 274.792969 267.886719 283.214844 C 269.203125 283.820312 270.167969 285.183594 271.8125 285.082031 Z M 273.246094 265.59375 C 279.476562 259.253906 285.773438 252.980469 292.003906 246.644531 C 298.589844 239.953125 305.371094 233.433594 311.628906 226.441406 C 319.761719 217.351562 327.996094 208.34375 336.699219 199.835938 C 341.558594 195.089844 342.539062 189.644531 342.828125 183.253906 C 335.9375 190.441406 329.132812 197.34375 322.542969 204.449219 C 311.90625 215.917969 301.425781 227.527344 290.851562 239.054688 C 287.351562 242.871094 284.074219 246.871094 280.34375 250.503906 C 276.640625 254.109375 273.25 258.0625 269.6875 261.835938 C 266.214844 265.511719 266.339844 265.628906 269.066406 270.304688 C 270.53125 268.644531 271.816406 267.046875 273.246094 265.59375 Z M 184.476562 199.21875 C 185.996094 197.273438 187.511719 195.328125 189.039062 193.390625 C 199.621094 179.941406 209.34375 165.839844 220.183594 152.585938 C 220.65625 152.007812 221.828125 151.527344 220.933594 150.351562 C 216.765625 144.867188 212.492188 139.476562 207.796875 134.03125 C 205.679688 138.785156 203.703125 143.347656 201.605469 147.851562 C 200.957031 149.242188 201.21875 150.128906 202.402344 150.96875 C 204.507812 152.460938 206.203125 154.367188 207.609375 156.515625 C 208.058594 157.203125 209.089844 158.015625 207.988281 158.835938 C 206.832031 159.691406 206.160156 158.550781 205.636719 157.796875 C 204.121094 155.628906 202.292969 153.796875 200.132812 152.003906 C 198.238281 157.441406 196.535156 162.757812 194.511719 167.945312 C 193.617188 170.246094 193.199219 172.097656 195.414062 173.800781 C 195.976562 174.234375 196.5 175.003906 195.855469 175.730469 C 195.132812 176.546875 194.5625 175.765625 193.988281 175.34375 C 193.484375 174.976562 193.261719 174.214844 192.3125 174.242188 C 189.582031 182.4375 186.847656 190.664062 184.109375 198.886719 C 184.230469 198.996094 184.355469 199.105469 184.476562 199.21875 Z M 326.726562 223.792969 C 318.605469 232.089844 310.546875 240.449219 302.3125 248.640625 C 292.988281 257.921875 284.90625 268.40625 275.347656 277.5 C 272.453125 280.253906 272.542969 280.347656 274.550781 283.863281 C 276.214844 286.785156 276.460938 286.734375 278.695312 284.082031 C 285.429688 276.082031 292.136719 268.058594 299.027344 260.195312 C 310.859375 246.691406 322.160156 232.707031 335.214844 220.308594 C 337.90625 217.753906 339.859375 214.683594 338.953125 210.28125 C 334.773438 214.921875 330.910156 219.515625 326.726562 223.792969 Z M 273.246094 276.496094 C 277.878906 271.917969 282.09375 266.945312 286.578125 262.246094 C 293.90625 254.566406 300.75 246.464844 308.496094 239.136719 C 318.601562 229.578125 327.808594 219.074219 337.394531 208.96875 C 339.96875 206.253906 340.859375 203.171875 340.226562 199.179688 C 338.648438 200.839844 337.109375 202.433594 335.601562 204.054688 C 325.949219 214.433594 316.570312 225.070312 306.582031 235.136719 C 300.542969 241.21875 294.503906 247.308594 288.570312 253.484375 C 283.375 258.894531 277.847656 263.960938 272.710938 269.429688 C 269.160156 273.207031 268.9375 273 271.015625 277.824219 C 271.042969 277.890625 271.125 277.9375 271.644531 278.445312 C 272.210938 277.75 272.671875 277.0625 273.246094 276.496094 Z M 273.246094 276.496094 " fill-opacity="1" fill-rule="nonzero"/></svg>